<?xml version="1.0" encoding="utf-8"?>
<svg viewBox="0 0 644.3 198.86" xmlns="http://www.w3.org/2000/svg">
  <defs>
    <style>.cls-1,.cls-2{fill:#fff;}.cls-2{fill-rule:evenodd;}.cls-3{fill:#d88506;}</style>
  </defs>
  <path class="cls-2" d="M28.32,123c-3-.05-5.7,4.71-5.37,12,.39,8.57,6.43,17.27,6.43,25.55,0,7.09-10.81,14.78-10.71,29.35.1,16.6,8.4,25.71,31.15,25.71s28.32-10.87,28.32-25c0-13-8.38-17.35-8.38-27.07,0-10.22,5.42-14.88,6.43-20.6,1.19-6.77-2.56-9.85-5.33-8.78-2.46,1-1.34,7.37-9.92,7.55-4.12.09-7.16-3.77-7.16-13.33s-9.64-10.6-10.22-1.22c-.18,2.78-1.06,8.14-6.81,8.17C30.35,135.34,32.14,123.11,28.32,123Z" transform="matrix(1, 0, 0, 1, -18.660002, -16.75)"/>
  <polygon class="cls-2" points="24.62 124.69 35.27 124.69 33.42 35.05 26.46 35.05 24.62 124.69"/>
  <path class="cls-2" d="M59.24,42.62A61.86,61.86,0,0,1,60,25.35c1.67-8.41-.47-13.15-5.12-2.27L43.74,49.2c-.44,1-1.17,1.46.31,3.55a4.71,4.71,0,0,1,1,2.35h7.09c0-1.18,1.37-4.32,3.87-6.42C57.55,47.38,59.4,44.46,59.24,42.62Z" transform="matrix(1, 0, 0, 1, -18.660002, -16.75)"/>
  <rect class="cls-1" x="52.94" y="24.84" width="1" height="3.38" transform="matrix(0.3933, -0.91941, 0.91941, 0.3933, -10.64, 48.48)"/>
  <path class="cls-2" d="M51.63,27.38l-1.08-.46c-.85-.76,0-2.71,1.13-2.63l1.07.46C53.22,25.35,52.38,27.31,51.63,27.38Z" transform="matrix(1, 0, 0, 1, -18.660002, -16.75)"/>
  <rect class="cls-1" x="51.13" y="29.06" width="1" height="3.38" transform="matrix(0.393461, -0.919341, 0.919341, 0.393461, -15.62, 49.369999)"/>
  <path class="cls-2" d="M49.82,31.61l-1.08-.47c-.85-.76,0-2.71,1.13-2.63L51,29C51.41,29.57,50.57,31.53,49.82,31.61Z" transform="matrix(1, 0, 0, 1, -18.660002, -16.75)"/>
  <rect class="cls-1" x="49.33" y="33.28" width="1" height="3.38" transform="matrix(0.393621, -0.919273, 0.919273, 0.393621, -20.6, 50.270002)"/>
  <path class="cls-2" d="M48,35.83l-1.07-.46c-.85-.76,0-2.72,1.12-2.63l1.08.46C49.61,33.79,48.77,35.75,48,35.83Z" transform="matrix(1, 0, 0, 1, -18.660002, -16.75)"/>
  <rect class="cls-1" x="47.52" y="37.5" width="1" height="3.38" transform="matrix(0.39314, -0.919479, 0.919479, 0.39314, -25.57, 51.19)"/>
  <path class="cls-2" d="M46.21,40.05l-1.08-.46c-.85-.76,0-2.72,1.13-2.63l1.07.46C47.8,38,47,40,46.21,40.05Z" transform="matrix(1, 0, 0, 1, -18.660002, -16.75)"/>
  <rect class="cls-1" x="45.72" y="41.73" width="1" height="3.38" transform="matrix(0.393461, -0.919341, 0.919341, 0.393461, -30.55, 52.070002)"/>
  <path class="cls-2" d="M44.4,44.27l-1.08-.46c-.85-.76,0-2.72,1.13-2.63l1.08.46C46,42.23,45.15,44.2,44.4,44.27Z" transform="matrix(1, 0, 0, 1, -18.660002, -16.75)"/>
  <rect class="cls-1" x="43.91" y="45.95" width="1" height="3.38" transform="matrix(0.393461, -0.919341, 0.919341, 0.393461, -35.529999, 52.970002)"/>
  <path class="cls-2" d="M42.6,48.49,41.52,48c-.85-.76,0-2.72,1.12-2.63l1.08.46C44.19,46.46,43.35,48.42,42.6,48.49Z" transform="matrix(1, 0, 0, 1, -18.660002, -16.75)"/>
  <text style="white-space: pre; fill: rgb(51, 51, 51); font-family: Arial, sans-serif; font-size: 17.5px;" x="137.925" y="187.653"> </text>
  <text style="fill: rgb(255, 255, 255); font-family: &quot;Microsoft YaHei UI&quot;; font-size: 36px; font-weight: 700; letter-spacing: 0.9px; white-space: pre;" transform="matrix(1.062325, 0, 0, 1.076585, -5.895679, -15.621296)" x="78.55" y="195.103">PASIÓN POR LAS CUERDAS</text>
  <text style="fill: rgb(255, 255, 255); font-family: &quot;Microsoft YaHei UI&quot;; font-size: 38px; font-weight: 700; white-space: pre;" x="37.599" y="42.589" transform="matrix(0.977749, 0, 0, 0.960553, 0.004422, 5.880741)"><tspan x="67.476" y="145.912" style="font-size: 109.1px; word-spacing: 0px;">Guitar</tspan><tspan style="fill: rgb(216, 133, 6); font-size: 109.1px; word-spacing: 0px;">JAM</tspan></text>
</svg>